<!-- created by svgstack.com | Attribution is required. --><svg width="201" height="201" viewBox="0 0 201 201" fill="none" xmlns="http://www.w3.org/2000/svg"><path d="M100.507 200.812H100.066C45.0484 200.812 0.286499 156.037 0.286499 101.002V100.562C0.286499 45.528 45.0484 0.75293 100.066 0.75293H100.507C155.525 0.75293 200.287 45.528 200.287 100.562V101.002C200.287 156.037 155.525 200.812 100.507 200.812ZM100.066 7.52472C48.7785 7.52472 7.05629 49.2592 7.05629 100.562V101.002C7.05629 152.305 48.7785 194.04 100.066 194.04H100.507C151.794 194.04 193.517 152.305 193.517 101.002V100.562C193.517 49.2592 151.794 7.52472 100.507 7.52472H100.066Z" fill="url(#paint0_linear_1_500)"/><path d="M130.185 43.4626H70.3944C53.8761 43.4626 40.438 56.9046 40.438 73.4278V128.144C40.438 144.667 53.8761 158.109 70.3944 158.109H130.185C146.703 158.109 160.142 144.667 160.142 128.144V73.4278C160.142 56.9046 146.703 43.4626 130.185 43.4626ZM51.0057 73.4278C51.0057 62.7352 59.7049 54.0334 70.3944 54.0334H130.185C140.875 54.0334 149.574 62.7352 149.574 73.4278V128.144C149.574 138.837 140.875 147.538 130.185 147.538H70.3944C59.7049 147.538 51.0057 138.837 51.0057 128.144V73.4278Z" fill="url(#paint1_linear_1_500)"/><path d="M100.29 128.652C115.651 128.652 128.154 116.151 128.154 100.779C128.154 85.407 115.657 72.9062 100.29 72.9062C84.9225 72.9062 72.4255 85.407 72.4255 100.779C72.4255 116.151 84.9225 128.652 100.29 128.652ZM100.29 83.4838C109.829 83.4838 117.587 91.2443 117.587 100.786C117.587 110.327 109.829 118.088 100.29 118.088C90.7513 118.088 82.9931 110.327 82.9931 100.786C82.9931 91.2443 90.7513 83.4838 100.29 83.4838Z" fill="url(#paint2_linear_1_500)"/><path d="M130.734 77.4094C134.87 77.4094 138.241 74.0439 138.241 69.8995C138.241 65.7552 134.877 62.3896 130.734 62.3896C126.591 62.3896 123.226 65.7552 123.226 69.8995C123.226 74.0439 126.591 77.4094 130.734 77.4094Z" fill="url(#paint3_linear_1_500)"/><defs><linearGradient id="paint0_linear_1_500" x1="29.5455" y1="171.544" x2="171.069" y2="30.0622" gradientUnits="userSpaceOnUse"><stop stop-color="#FAAD4F"/><stop offset="0.35" stop-color="#DD2A7B"/><stop offset="0.62" stop-color="#9537B0"/><stop offset="1" stop-color="#515BD4"/></linearGradient><linearGradient id="paint1_linear_1_500" x1="50.4912" y1="150.592" x2="150.111" y2="51.0087" gradientUnits="userSpaceOnUse"><stop stop-color="#FAAD4F"/><stop offset="0.35" stop-color="#DD2A7B"/><stop offset="0.62" stop-color="#9537B0"/><stop offset="1" stop-color="#515BD4"/></linearGradient><linearGradient id="paint2_linear_1_500" x1="80.5966" y1="120.485" x2="119.988" y2="81.0982" gradientUnits="userSpaceOnUse"><stop stop-color="#FAAD4F"/><stop offset="0.35" stop-color="#DD2A7B"/><stop offset="0.62" stop-color="#9537B0"/><stop offset="1" stop-color="#515BD4"/></linearGradient><linearGradient id="paint3_linear_1_500" x1="125.426" y1="75.2086" x2="136.044" y2="64.5936" gradientUnits="userSpaceOnUse"><stop stop-color="#FAAD4F"/><stop offset="0.35" stop-color="#DD2A7B"/><stop offset="0.62" stop-color="#9537B0"/><stop offset="1" stop-color="#515BD4"/></linearGradient></defs></svg> 