<!-- created by svgstack.com | Attribution is required. --><svg width="201" height="201" viewBox="0 0 201 201" fill="none" xmlns="http://www.w3.org/2000/svg"><path d="M100.559 200.304H100.119C45.1008 200.304 0.338867 155.528 0.338867 100.494V100.054C0.338867 45.0197 45.1008 0.244629 100.119 0.244629H100.559C155.577 0.244629 200.339 45.0197 200.339 100.054V100.494C200.339 155.528 155.577 200.304 100.559 200.304ZM100.119 7.01641C48.831 7.01641 7.10866 48.751 7.10866 100.054V100.494C7.10866 151.797 48.831 193.532 100.119 193.532H100.559C151.847 193.532 193.569 151.797 193.569 100.494V100.054C193.569 48.751 151.847 7.01641 100.559 7.01641H100.119Z" fill="#383D38"/><path d="M49.8059 67.8746C47.2605 65.5112 45.9946 62.5858 45.9946 59.1051C45.9946 55.6244 47.2673 52.5703 49.8059 50.2001C52.3514 47.8368 55.628 46.6517 59.6425 46.6517C63.6569 46.6517 66.805 47.8368 69.3436 50.2001C71.8891 52.5635 73.1549 55.5364 73.1549 59.1051C73.1549 62.6739 71.8823 65.5112 69.3436 67.8746C66.7982 70.2379 63.5689 71.423 59.6425 71.423C55.716 71.423 52.3514 70.2379 49.8059 67.8746ZM71.0157 81.4317V153.89H48.127V81.4317H71.0157Z" fill="#383D38"/><path d="M147.21 88.5893C152.199 94.0067 154.69 101.442 154.69 110.909V152.61H132.953V113.848C132.953 109.074 131.714 105.363 129.243 102.722C126.772 100.081 123.441 98.7537 119.271 98.7537C115.101 98.7537 111.77 100.074 109.299 102.722C106.828 105.363 105.589 109.074 105.589 113.848V152.61H83.7227V81.2284H105.589V90.6954C107.803 87.5397 110.788 85.0477 114.539 83.2125C118.289 81.3774 122.507 80.4631 127.198 80.4631C135.552 80.4631 142.227 83.1718 147.21 88.5893Z" fill="#383D38"/></svg> 